<?xml version="1.0" encoding="UTF-8" standalone="no"?><!DOCTYPE svg PUBLIC "-//W3C//DTD SVG 1.1//EN" "http://www.w3.org/Graphics/SVG/1.1/DTD/svg11.dtd"><svg width="100%" height="100%" viewBox="0 0 16 16" version="1.1" xmlns="http://www.w3.org/2000/svg" xmlns:xlink="http://www.w3.org/1999/xlink" xml:space="preserve" xmlns:serif="http://www.serif.com/" style="fill-rule:evenodd;clip-rule:evenodd;stroke-linejoin:round;stroke-miterlimit:2;"><path id="Globe-Earth" serif:id="Globe Earth" d="M0.85,7.202c0.096,-1.384 0.602,-2.684 1.469,-3.776c0.56,0.243 1.158,0.448 1.781,0.61c-0.287,0.997 -0.45,2.061 -0.486,3.166l-2.764,0Zm6.352,4.512l0,2.74c-0.786,-0.263 -1.517,-1.168 -2.04,-2.528c0.637,-0.118 1.322,-0.189 2.04,-0.212Zm-1.703,2.457c-0.97,-0.327 -1.855,-0.869 -2.595,-1.59c0.447,-0.177 0.933,-0.333 1.45,-0.465c0.308,0.823 0.699,1.522 1.145,2.055Zm-1.061,-6.013l2.764,0l0,2.723c-0.79,0.026 -1.563,0.112 -2.303,0.258c-0.266,-0.923 -0.423,-1.947 -0.461,-2.981Zm2.764,-3.679l0,2.723l-2.764,0c0.038,-1.035 0.195,-2.058 0.461,-2.98c0.744,0.145 1.517,0.232 2.303,0.257Zm-4.298,-1.7c0.74,-0.721 1.625,-1.263 2.595,-1.589c-0.446,0.532 -0.836,1.231 -1.145,2.054c-0.517,-0.132 -1.003,-0.288 -1.45,-0.465Zm2.258,0.655c0.523,-1.361 1.255,-2.265 2.04,-2.527l0,2.74c-0.719,-0.024 -1.403,-0.096 -2.04,-0.213Zm-1.062,7.89c-0.622,0.162 -1.22,0.367 -1.781,0.61c-0.867,-1.091 -1.373,-2.391 -1.469,-3.776l2.764,0c0.036,1.104 0.199,2.167 0.486,3.166Zm10.41,-3.169c-0.097,1.387 -0.602,2.688 -1.469,3.779c-0.562,-0.243 -1.16,-0.448 -1.781,-0.61c0.286,-0.997 0.449,-2.061 0.486,-3.169l2.764,0Zm-6.352,-4.508l0,-2.74c0.786,0.262 1.517,1.166 2.04,2.527c-0.637,0.117 -1.321,0.189 -2.04,0.213Zm2.848,-0.403c-0.308,-0.823 -0.699,-1.522 -1.145,-2.054c0.969,0.326 1.855,0.868 2.594,1.589c-0.446,0.177 -0.932,0.333 -1.449,0.465Zm-0.085,3.958l-2.763,0l0,-2.723c0.789,-0.026 1.562,-0.112 2.302,-0.257c0.266,0.92 0.424,1.945 0.461,2.98Zm0.824,0c-0.036,-1.104 -0.199,-2.167 -0.486,-3.165c0.623,-0.163 1.22,-0.368 1.782,-0.611c0.867,1.091 1.372,2.391 1.468,3.776l-2.764,0Zm-3.587,3.679l0,-2.726l2.763,0c-0.037,1.038 -0.195,2.063 -0.461,2.983c-0.74,-0.145 -1.513,-0.232 -2.302,-0.257Zm4.298,1.7c-0.74,0.721 -1.625,1.263 -2.595,1.59c0.446,-0.533 0.837,-1.232 1.145,-2.055c0.518,0.132 1.004,0.288 1.45,0.465Zm-2.259,-0.655c-0.522,1.36 -1.253,2.264 -2.039,2.528l0,-2.74c0.716,0.023 1.4,0.094 2.039,0.212Zm-2.517,-11.926c-4.235,0 -7.68,3.445 -7.68,7.68c0,4.235 3.445,7.68 7.68,7.68c4.235,0 7.68,-3.445 7.68,-7.68c0,-4.235 -3.445,-7.68 -7.68,-7.68Z" style="fill-opacity:0.5;"/></svg>